<?xml version="1.0" encoding="UTF-8" standalone="no"?>
<!DOCTYPE svg PUBLIC "-//W3C//DTD SVG 1.1//EN"
 "http://www.w3.org/Graphics/SVG/1.1/DTD/svg11.dtd">
<!-- Generated by graphviz version 3.0.0 (20220226.1711)
 -->
<!-- Title: dependencies Pages: 1 -->
<svg width="446pt" height="247pt"
 viewBox="0.00 0.00 446.00 246.80" xmlns="http://www.w3.org/2000/svg" xmlns:xlink="http://www.w3.org/1999/xlink">
<g id="graph0" class="graph" transform="scale(1 1) rotate(0) translate(4 242.8)">
<title>dependencies</title>
<polygon fill="white" stroke="transparent" points="-4,4 -4,-242.8 442,-242.8 442,4 -4,4"/>
<text text-anchor="middle" x="219" y="-8.2" font-family="sans-serif" font-size="14.00">dependencies</text>
<g id="clust1" class="cluster">
<title>cluster_CoreModule</title>
<polygon fill="none" stroke="black" stroke-dasharray="1,5" points="8,-32.8 8,-230.8 430,-230.8 430,-32.8 8,-32.8"/>
</g>
<g id="clust2" class="cluster">
<title>cluster_CoreModule_declarations</title>
<polygon fill="none" stroke="black" points="136,-40.8 136,-92.8 422,-92.8 422,-40.8 136,-40.8"/>
</g>
<g id="clust6" class="cluster">
<title>cluster_CoreModule_exports</title>
<polygon fill="none" stroke="black" points="144,-170.8 144,-222.8 280,-222.8 280,-170.8 144,-170.8"/>
</g>
<g id="clust5" class="cluster">
<title>cluster_CoreModule_imports</title>
<polygon fill="none" stroke="black" points="16,-40.8 16,-92.8 128,-92.8 128,-40.8 16,-40.8"/>
</g>
<!-- HomeComponent -->
<g id="node1" class="node">
<title>HomeComponent</title>
<polygon fill="#ffffb3" stroke="black" points="413.55,-84.8 298.45,-84.8 298.45,-48.8 413.55,-48.8 413.55,-84.8"/>
<text text-anchor="middle" x="356" y="-62.6" font-family="Times,serif" font-size="14.00">HomeComponent</text>
</g>
<!-- CoreModule -->
<g id="node3" class="node">
<title>CoreModule</title>
<polygon fill="#8dd3c7" stroke="black" points="255.27,-149.8 252.27,-153.8 231.27,-153.8 228.27,-149.8 168.73,-149.8 168.73,-113.8 255.27,-113.8 255.27,-149.8"/>
<text text-anchor="middle" x="212" y="-127.6" font-family="Times,serif" font-size="14.00">CoreModule</text>
</g>
<!-- HomeComponent&#45;&gt;CoreModule -->
<g id="edge1" class="edge">
<title>HomeComponent&#45;&gt;CoreModule</title>
<path fill="none" stroke="black" d="M356,-84.91C356,-104.14 356,-131.8 356,-131.8 356,-131.8 265.6,-131.8 265.6,-131.8"/>
<polygon fill="black" stroke="black" points="265.6,-128.3 255.6,-131.8 265.6,-135.3 265.6,-128.3"/>
</g>
<!-- RiepilogoComponent -->
<g id="node2" class="node">
<title>RiepilogoComponent</title>
<polygon fill="#ffffb3" stroke="black" points="280.05,-84.8 143.95,-84.8 143.95,-48.8 280.05,-48.8 280.05,-84.8"/>
<text text-anchor="middle" x="212" y="-62.6" font-family="Times,serif" font-size="14.00">RiepilogoComponent</text>
</g>
<!-- RiepilogoComponent&#45;&gt;CoreModule -->
<g id="edge2" class="edge">
<title>RiepilogoComponent&#45;&gt;CoreModule</title>
<path fill="none" stroke="black" d="M212,-84.91C212,-84.91 212,-103.79 212,-103.79"/>
<polygon fill="black" stroke="black" points="208.5,-103.79 212,-113.79 215.5,-103.79 208.5,-103.79"/>
</g>
<!-- HomeComponent  -->
<g id="node5" class="node">
<title>HomeComponent </title>
<polygon fill="#fb8072" stroke="black" points="271.54,-214.8 152.46,-214.8 152.46,-178.8 271.54,-178.8 271.54,-214.8"/>
<text text-anchor="middle" x="212" y="-192.6" font-family="Times,serif" font-size="14.00">HomeComponent </text>
</g>
<!-- CoreModule&#45;&gt;HomeComponent  -->
<g id="edge4" class="edge">
<title>CoreModule&#45;&gt;HomeComponent </title>
<path fill="none" stroke="black" stroke-dasharray="5,2" d="M212,-149.91C212,-149.91 212,-168.79 212,-168.79"/>
<polygon fill="black" stroke="black" points="208.5,-168.79 212,-178.79 215.5,-168.79 208.5,-168.79"/>
</g>
<!-- ModelModule -->
<g id="node4" class="node">
<title>ModelModule</title>
<polygon fill="#8dd3c7" stroke="black" points="120.1,-84.8 117.1,-88.8 96.1,-88.8 93.1,-84.8 23.9,-84.8 23.9,-48.8 120.1,-48.8 120.1,-84.8"/>
<text text-anchor="middle" x="72" y="-62.6" font-family="Times,serif" font-size="14.00">ModelModule</text>
</g>
<!-- ModelModule&#45;&gt;CoreModule -->
<g id="edge3" class="edge">
<title>ModelModule&#45;&gt;CoreModule</title>
<path fill="none" stroke="black" d="M72,-84.91C72,-104.14 72,-131.8 72,-131.8 72,-131.8 158.47,-131.8 158.47,-131.8"/>
<polygon fill="black" stroke="black" points="158.47,-135.3 168.47,-131.8 158.47,-128.3 158.47,-135.3"/>
</g>
</g>
</svg>
