<?xml version="1.0" encoding="UTF-8" standalone="no"?>
<!DOCTYPE svg PUBLIC "-//W3C//DTD SVG 1.1//EN"
 "http://www.w3.org/Graphics/SVG/1.1/DTD/svg11.dtd">
<!-- Generated by graphviz version 3.0.0 (20220226.1711)
 -->
<!-- Title: dependencies Pages: 1 -->
<svg width="930pt" height="174pt"
 viewBox="0.00 0.00 930.00 173.80" xmlns="http://www.w3.org/2000/svg" xmlns:xlink="http://www.w3.org/1999/xlink">
<g id="graph0" class="graph" transform="scale(1 1) rotate(0) translate(4 169.8)">
<title>dependencies</title>
<polygon fill="white" stroke="transparent" points="-4,4 -4,-169.8 926,-169.8 926,4 -4,4"/>
<text text-anchor="middle" x="461" y="-8.2" font-family="sans-serif" font-size="14.00">dependencies</text>
<g id="clust1" class="cluster">
<title>cluster_ModelModule</title>
<polygon fill="none" stroke="black" stroke-dasharray="1,5" points="8,-32.8 8,-157.8 914,-157.8 914,-32.8 8,-32.8"/>
</g>
<g id="clust6" class="cluster">
<title>cluster_ModelModule_providers</title>
<polygon fill="none" stroke="black" points="16,-40.8 16,-92.8 906,-92.8 906,-40.8 16,-40.8"/>
</g>
<!-- AtletaRepositoryService -->
<g id="node1" class="node">
<title>AtletaRepositoryService</title>
<ellipse fill="#fdb462" stroke="black" cx="792" cy="-66.8" rx="105.94" ry="18"/>
<text text-anchor="middle" x="792" y="-62.6" font-family="Times,serif" font-size="14.00">AtletaRepositoryService</text>
</g>
<!-- ModelModule -->
<g id="node5" class="node">
<title>ModelModule</title>
<polygon fill="#8dd3c7" stroke="black" points="535.1,-149.8 532.1,-153.8 511.1,-153.8 508.1,-149.8 438.9,-149.8 438.9,-113.8 535.1,-113.8 535.1,-149.8"/>
<text text-anchor="middle" x="487" y="-127.6" font-family="Times,serif" font-size="14.00">ModelModule</text>
</g>
<!-- AtletaRepositoryService&#45;&gt;ModelModule -->
<g id="edge1" class="edge">
<title>AtletaRepositoryService&#45;&gt;ModelModule</title>
<path fill="none" stroke="black" d="M792,-84.91C792,-104.14 792,-131.8 792,-131.8 792,-131.8 545.33,-131.8 545.33,-131.8"/>
<polygon fill="black" stroke="black" points="545.33,-128.3 535.33,-131.8 545.33,-135.3 545.33,-128.3"/>
</g>
<!-- OlimpioniciService -->
<g id="node2" class="node">
<title>OlimpioniciService</title>
<ellipse fill="#fdb462" stroke="black" cx="581" cy="-66.8" rx="86.83" ry="18"/>
<text text-anchor="middle" x="581" y="-62.6" font-family="Times,serif" font-size="14.00">OlimpioniciService</text>
</g>
<!-- OlimpioniciService&#45;&gt;ModelModule -->
<g id="edge2" class="edge">
<title>OlimpioniciService&#45;&gt;ModelModule</title>
<path fill="none" stroke="black" d="M514.69,-78.42C514.69,-78.42 514.69,-103.65 514.69,-103.65"/>
<polygon fill="black" stroke="black" points="511.19,-103.65 514.69,-113.65 518.19,-103.65 511.19,-103.65"/>
</g>
<!-- RepositoryService -->
<g id="node3" class="node">
<title>RepositoryService</title>
<ellipse fill="#fdb462" stroke="black" cx="394" cy="-66.8" rx="82.25" ry="18"/>
<text text-anchor="middle" x="394" y="-62.6" font-family="Times,serif" font-size="14.00">RepositoryService</text>
</g>
<!-- RepositoryService&#45;&gt;ModelModule -->
<g id="edge3" class="edge">
<title>RepositoryService&#45;&gt;ModelModule</title>
<path fill="none" stroke="black" d="M457.66,-78.42C457.66,-78.42 457.66,-103.65 457.66,-103.65"/>
<polygon fill="black" stroke="black" points="454.16,-103.65 457.66,-113.65 461.16,-103.65 454.16,-103.65"/>
</g>
<!-- SelezionatoreRepositoryService -->
<g id="node4" class="node">
<title>SelezionatoreRepositoryService</title>
<ellipse fill="#fdb462" stroke="black" cx="159" cy="-66.8" rx="134.85" ry="18"/>
<text text-anchor="middle" x="159" y="-62.6" font-family="Times,serif" font-size="14.00">SelezionatoreRepositoryService</text>
</g>
<!-- SelezionatoreRepositoryService&#45;&gt;ModelModule -->
<g id="edge4" class="edge">
<title>SelezionatoreRepositoryService&#45;&gt;ModelModule</title>
<path fill="none" stroke="black" d="M159,-84.91C159,-104.14 159,-131.8 159,-131.8 159,-131.8 428.6,-131.8 428.6,-131.8"/>
<polygon fill="black" stroke="black" points="428.6,-135.3 438.6,-131.8 428.6,-128.3 428.6,-135.3"/>
</g>
</g>
</svg>
